<svg width="10" height="9" viewBox="0 0 10 9" fill="none" xmlns="http://www.w3.org/2000/svg">
<path d="M2.46109 5.41289L2.52574 3.20331C2.5173 2.85497 2.23057 2.57633 1.89891 2.57704L1.89862 2.57704C1.54506 2.57738 1.26958 2.85286 1.26923 3.20642L1.26925 3.20642L1.26921 3.20956L1.21066 7.54044C1.21114 7.87654 1.49356 8.15806 1.82872 8.15734L1.82871 8.15729L1.83413 8.15739L6.30999 8.2448C6.66241 8.24324 6.93666 7.9682 6.937 7.61543C6.93733 7.27868 6.65458 6.99636 6.31894 6.99707L6.31894 6.99727L6.30898 6.99689L3.93892 6.90739L3.36659 6.88578L3.77158 6.48079L8.90499 1.34738C9.1539 1.09847 9.15606 0.703368 8.91504 0.462355C8.67076 0.218068 8.26677 0.217968 8.02117 0.463562L2.88776 5.59698L2.44268 6.04205L2.46109 5.41289Z" fill="#8484F1" stroke="#161C23" stroke-width="0.5"/>
</svg>
