<svg width="9" height="9" viewBox="0 0 9 9" fill="none" xmlns="http://www.w3.org/2000/svg">
<path d="M6.96415 3.10497L6.94689 5.31543C6.9628 5.6635 7.25544 5.93593 7.58701 5.92811L7.5873 5.92811C7.94077 5.92018 8.21028 5.63886 8.20304 5.28537L8.20302 5.28537L8.20299 5.28224L8.16867 0.951102C8.16099 0.615082 7.8726 0.339685 7.53753 0.347586L7.53753 0.347645L7.53211 0.347656L3.05541 0.356238C2.7031 0.36536 2.43481 0.646215 2.44203 0.998914C2.44893 1.33559 2.73767 1.61178 3.07321 1.60387L3.07321 1.60367L3.08318 1.60384L5.45461 1.6425L6.02727 1.65184L5.63106 2.06541L0.6089 7.30771C0.365386 7.5619 0.371701 7.95696 0.617827 8.19275C0.867296 8.43175 1.27119 8.42318 1.51147 8.17238L6.53363 2.93008L6.96906 2.47555L6.96415 3.10497Z" fill="#CAA276" stroke="#161C23" stroke-width="0.5"/>
</svg>
