<svg width="13" height="11" viewBox="0 0 13 11" fill="none" xmlns="http://www.w3.org/2000/svg">
<path d="M2.55698 4.19065L2.55683 4.19048C2.34922 3.96485 2.0742 3.84425 1.79425 3.84425C1.5143 3.84425 1.23928 3.96485 1.03168 4.19048C0.823179 4.41709 0.701562 4.73022 0.701562 5.06222C0.701562 5.39419 0.823162 5.7073 1.03164 5.93391C1.03165 5.93392 1.03166 5.93394 1.03168 5.93395L4.19276 9.36404L2.55698 4.19065ZM2.55698 4.19065L4.4407 6.2352L4.44176 6.23635M2.55698 4.19065L4.44176 6.23635M4.44176 6.23635C4.57326 6.3778 4.75725 6.46315 4.95566 6.46315C5.15408 6.46315 5.33807 6.37779 5.46956 6.23635L5.47064 6.23519M4.44176 6.23635L5.47064 6.23519M5.47064 6.23519L10.5726 0.697076L10.5729 0.696759M5.47064 6.23519L10.5729 0.696759M10.5729 0.696759C10.6758 0.584791 10.7963 0.497655 10.9269 0.438783C11.0573 0.379953 11.196 0.350094 11.3353 0.35C11.4745 0.349907 11.6132 0.379579 11.7437 0.438228C11.8743 0.496921 11.995 0.583887 12.098 0.695703L12.3544 0.459554M10.5729 0.696759L12.3544 0.459554M12.3544 0.459554L12.098 0.695704C12.2011 0.80758 12.2842 0.94197 12.3415 1.09187C12.3987 1.2418 12.4285 1.40339 12.4286 1.56719C12.4287 1.731 12.3991 1.89264 12.342 2.04265C12.285 2.19255 12.202 2.327 12.0992 2.43899C12.0991 2.43906 12.099 2.43912 12.099 2.43918L5.71983 9.36404L12.3544 0.459554ZM4.95629 9.71C5.23642 9.71 5.51163 9.58958 5.71964 9.36424L4.95629 9.71ZM4.95629 9.71C4.67614 9.71 4.40092 9.58956 4.1929 9.36419L4.95629 9.71Z" fill="#694D2E" stroke="#E0B36A" stroke-width="0.7"/>
</svg>
